<svg width="30" height="30" viewBox="0 0 30 30" fill="none" xmlns="http://www.w3.org/2000/svg">
<path d="M2.68441 14.7624C9.24362 11.9047 13.6175 10.0207 15.8059 9.11041C22.0544 6.51145 23.3528 6.05999 24.199 6.04507C24.3851 6.0418 24.8014 6.08792 25.0709 6.30667C25.2985 6.49137 25.3611 6.74089 25.3911 6.916C25.4211 7.09112 25.4584 7.49005 25.4288 7.80175C25.0901 11.3595 23.625 19.9934 22.8796 23.9781C22.5643 25.6642 21.9433 26.2295 21.342 26.2849C20.0354 26.4051 19.0431 25.4214 17.7776 24.5919C15.7974 23.2937 14.6786 22.4856 12.7564 21.2189C10.5349 19.755 11.975 18.9504 13.241 17.6355C13.5724 17.2914 19.3294 12.055 19.4408 11.5799C19.4546 11.5205 19.4676 11.2991 19.336 11.1821C19.2045 11.0652 19.0104 11.1052 18.8703 11.137C18.6716 11.1821 15.508 13.273 9.37956 17.41C8.4816 18.0265 7.66826 18.327 6.93954 18.3112C6.13616 18.2939 4.59081 17.857 3.442 17.4836C2.03294 17.0255 0.91304 16.7834 1.01056 16.0055C1.06135 15.6004 1.6193 15.186 2.68441 14.7624Z" fill="white"/>
</svg>
